<svg xmlns="http://www.w3.org/2000/svg" width="28" height="28" fill="none" xmlns:v="https://vecta.io/nano"><mask id="A" maskUnits="userSpaceOnUse" x="0" y="0" width="28" height="28" mask-type="alpha"><path fill="#d9d9d9" d="M0 0h28v28H0z"/></mask><g mask="url(#A)"><path d="M6.192 23.917a2.03 2.03 0 0 1-1.491-.618 2.03 2.03 0 0 1-.618-1.491V6.193a2.03 2.03 0 0 1 .618-1.491 2.03 2.03 0 0 1 1.491-.618h15.615a2.03 2.03 0 0 1 1.491.618 2.03 2.03 0 0 1 .618 1.491v3.175h-1.75V6.193a.35.35 0 0 0-.359-.359H6.192a.35.35 0 0 0-.359.359v15.615a.35.35 0 0 0 .359.359h15.615a.35.35 0 0 0 .359-.359v-3.175h1.75v3.175a2.03 2.03 0 0 1-.618 1.491 2.03 2.03 0 0 1-1.491.618H6.192zm9.333-4.667a2.03 2.03 0 0 1-1.491-.618 2.03 2.03 0 0 1-.618-1.491v-6.282a2.03 2.03 0 0 1 .618-1.491 2.03 2.03 0 0 1 1.491-.618h7.449a2.03 2.03 0 0 1 1.491.618 2.03 2.03 0 0 1 .618 1.491v6.282a2.03 2.03 0 0 1-.618 1.491 2.03 2.03 0 0 1-1.491.618h-7.449zm7.449-1.75a.35.35 0 0 0 .359-.359v-6.282a.35.35 0 0 0-.359-.359h-7.449a.35.35 0 0 0-.359.359v6.282a.35.35 0 0 0 .359.359h7.449zm-4.308-1.75c.486 0 .899-.17 1.239-.511s.511-.753.511-1.239-.17-.899-.511-1.24-.753-.51-1.239-.51-.899.17-1.24.51-.51.753-.51 1.24.17.899.51 1.239.753.511 1.24.511z" fill="#000"/></g></svg>