<svg xmlns="http://www.w3.org/2000/svg" width="16" height="16" fill="none" xmlns:v="https://vecta.io/nano"><mask id="A" maskUnits="userSpaceOnUse" x="0" y="0" width="16" height="16" mask-type="alpha"><path fill="#d9d9d9" d="M0 0h16v16H0z"/></mask><g mask="url(#A)"><path d="M7.5 8.5v2.167c0 .142.048.26.144.356s.215.144.356.144.261-.048.356-.144.144-.215.144-.356V8.5h2.167c.142 0 .26-.048.356-.144s.144-.215.144-.356-.048-.261-.144-.356-.215-.144-.356-.144H8.5V5.333c0-.142-.048-.26-.144-.356S8.141 4.833 8 4.833s-.261.048-.356.144-.144.214-.144.356V7.5H5.333c-.142 0-.26.048-.356.144s-.144.215-.144.356.048.261.144.356.214.144.356.144H7.5zm.501 5.833a6.17 6.17 0 0 1-2.47-.499c-.771-.332-1.441-.784-2.011-1.354s-1.021-1.24-1.354-2.011-.499-1.594-.499-2.469a6.17 6.17 0 0 1 .499-2.47c.332-.771.784-1.441 1.354-2.011s1.24-1.021 2.01-1.354 1.594-.499 2.47-.499a6.17 6.17 0 0 1 2.47.499c.771.332 1.441.784 2.011 1.354s1.021 1.24 1.354 2.01.499 1.594.499 2.47a6.17 6.17 0 0 1-.499 2.47c-.332.771-.784 1.441-1.354 2.011s-1.24 1.021-2.011 1.354-1.594.499-2.469.499zm-.001-1c1.489 0 2.75-.517 3.783-1.55s1.55-2.294 1.55-3.783-.517-2.75-1.55-3.783S9.489 2.667 8 2.667s-2.75.517-3.783 1.55S2.667 6.511 2.667 8s.517 2.75 1.55 3.783 2.294 1.55 3.783 1.55z" fill="#636263"/></g></svg>