<svg xmlns="http://www.w3.org/2000/svg" width="10" height="10" fill="none" xmlns:v="https://vecta.io/nano"><path d="M4.625 5.375V7c0 .106.036.195.108.267s.161.108.267.108.195-.036.267-.108.108-.161.108-.267V5.375H7c.106 0 .195-.036.267-.108s.108-.161.108-.267-.036-.195-.108-.267-.161-.108-.267-.108H5.375V3c0-.106-.036-.195-.108-.267S5.106 2.625 5 2.625s-.195.036-.267.108-.108.161-.108.267v1.625H3c-.106 0-.195.036-.267.108s-.108.161-.108.267.036.195.108.267.161.108.267.108h1.625zm.376 4.375c-.657 0-1.275-.125-1.853-.374S2.067 8.788 1.64 8.361.874 7.431.624 6.853.25 5.658.25 5.001.375 3.726.624 3.148s.588-1.081 1.015-1.508.93-.766 1.508-1.016S4.342.25 4.999.25s1.275.125 1.853.374 1.081.588 1.509 1.015.766.93 1.016 1.508.374 1.195.374 1.852-.125 1.275-.374 1.853-.588 1.081-1.015 1.509-.93.766-1.508 1.016-1.195.374-1.852.374zM5 9c1.117 0 2.063-.387 2.838-1.162S9 6.117 9 5s-.387-2.062-1.162-2.837S6.117 1 5 1s-2.062.387-2.837 1.163S1 3.883 1 5s.387 2.063 1.163 2.838S3.883 9 5 9z" fill="#636263"/></svg>