<svg xmlns="http://www.w3.org/2000/svg" width="28" height="28" fill="none" xmlns:v="https://vecta.io/nano"><mask id="A" maskUnits="userSpaceOnUse" x="0" y="0" width="28" height="28" mask-type="alpha"><path fill="#d9d9d9" d="M0 0h28v28H0z"/></mask><g mask="url(#A)"><path d="M9.468 14c-.248 0-.456.084-.624.251s-.251.375-.251.624v3.792c0 .248.084.456.251.624s.376.251.624.251.456-.084.624-.251.251-.375.251-.624v-3.792c0-.248-.084-.456-.251-.624S9.716 14 9.468 14zm9.064-5.833c-.248 0-.456.084-.624.251s-.251.375-.251.624v9.625c0 .248.084.456.251.624s.375.251.624.251.456-.084.624-.251.251-.375.251-.624V9.042c0-.248-.084-.456-.251-.624s-.376-.251-.624-.251zM14 16.334c-.248 0-.456.084-.624.251s-.251.375-.251.624v1.458c0 .248.084.456.251.624s.375.251.624.251.456-.084.624-.251.251-.375.251-.624v-1.458c0-.248-.084-.456-.251-.624s-.375-.251-.624-.251zm-7.808 7.583c-.589 0-1.088-.204-1.497-.612s-.612-.907-.612-1.497V6.193c0-.589.204-1.088.612-1.497s.907-.612 1.497-.612h15.615c.589 0 1.088.204 1.497.612s.612.907.612 1.497v15.615c0 .589-.204 1.088-.612 1.497s-.907.612-1.497.612H6.192zm0-1.75h15.615c.09 0 .172-.037.247-.112s.112-.157.112-.247V6.193c0-.09-.037-.172-.112-.247s-.157-.112-.247-.112H6.192c-.09 0-.172.037-.247.112s-.112.157-.112.247v15.615c0 .09.037.172.112.247s.157.112.247.112zM14 13.709c.248 0 .456-.084.624-.251s.251-.375.251-.624-.084-.456-.251-.624-.375-.251-.624-.251-.456.084-.624.251-.251.375-.251.624.084.456.251.624.375.251.624.251z" fill="#000"/></g></svg>