<svg xmlns="http://www.w3.org/2000/svg" width="13" height="12" fill="none" xmlns:v="https://vecta.io/nano"><path d="M2.144 6.625l4.308 4.308c.124.124.185.269.184.435a.62.62 0 0 1-.196.443c-.129.121-.276.183-.439.188s-.31-.058-.439-.187L.277 6.528a.69.69 0 0 1-.165-.247A.8.8 0 0 1 .064 6a.8.8 0 0 1 .048-.28.69.69 0 0 1 .165-.247L5.561.189c.115-.115.258-.174.429-.177s.32.056.45.177c.129.129.194.278.194.445s-.065.316-.194.446L2.144 5.375h9.481c.177 0 .326.06.445.18s.18.268.18.445-.06.326-.18.445-.268.18-.445.18H2.144z" fill="#000"/></svg>