<svg xmlns="http://www.w3.org/2000/svg" width="10" height="11" fill="none" xmlns:v="https://vecta.io/nano"><path d="M8.085 6H.5c-.142 0-.261-.048-.356-.144S0 5.642 0 5.5s.048-.261.144-.356S.358 5 .5 5h7.585L4.639 1.554a.47.47 0 0 1-.147-.348c.001-.133.054-.251.157-.355.103-.097.221-.147.351-.15s.248.047.351.15l4.227 4.227a.55.55 0 0 1 .132.197.64.64 0 0 1 .039.224.64.64 0 0 1-.039.224.55.55 0 0 1-.132.198l-4.227 4.227c-.092.092-.207.139-.343.142a.5.5 0 0 1-.36-.142.49.49 0 0 1 0-.713L8.085 6z" fill="#000"/></svg>