<svg xmlns="http://www.w3.org/2000/svg" width="13" height="12" fill="none" xmlns:v="https://vecta.io/nano"><path d="M10.856 6.625H1.375c-.177 0-.326-.06-.445-.18S.75 6.177.75 6s.06-.326.18-.445.268-.18.445-.18h9.481L6.548 1.067C6.424.943 6.363.798 6.365.632a.62.62 0 0 1 .196-.443C6.69.068 6.837.006 7 .002s.31.058.439.188l5.284 5.284a.69.69 0 0 1 .165.247.8.8 0 0 1 .048.28.8.8 0 0 1-.048.28.69.69 0 0 1-.165.247l-5.284 5.284c-.115.115-.258.175-.429.177s-.32-.056-.45-.177c-.129-.129-.194-.278-.194-.445s.065-.316.194-.446l4.295-4.295z" fill="#000"/></svg>