<svg xmlns="http://www.w3.org/2000/svg" width="20" height="20" fill="none" xmlns:v="https://vecta.io/nano"><path d="M8.581 12.146L6.258 9.823c-.138-.138-.313-.209-.522-.213s-.387.068-.532.213a.72.72 0 0 0-.217.527.72.72 0 0 0 .217.527l2.744 2.744c.181.181.392.271.633.271s.452-.09.633-.271l5.563-5.563c.138-.139.209-.313.213-.522s-.068-.387-.213-.532a.72.72 0 0 0-.527-.217.72.72 0 0 0-.527.217l-5.142 5.143zm1.421 7.354c-1.314 0-2.549-.249-3.705-.748s-2.162-1.175-3.017-2.03-1.532-1.86-2.031-3.016S.5 11.316.5 10.002s.249-2.549.748-3.705 1.175-2.162 2.03-3.017 1.86-1.532 3.016-2.031S8.684.5 9.998.5s2.549.249 3.705.748 2.162 1.175 3.017 2.03 1.532 1.86 2.031 3.016.748 2.39.748 3.704-.249 2.549-.748 3.705-1.175 2.162-2.03 3.017-1.86 1.532-3.016 2.031-2.39.748-3.704.748zM10 18c2.233 0 4.125-.775 5.675-2.325S18 12.233 18 10s-.775-4.125-2.325-5.675S12.233 2 10 2s-4.125.775-5.675 2.325S2 7.767 2 10s.775 4.125 2.325 5.675S7.767 18 10 18z" fill="#ccc"/></svg>