<svg xmlns="http://www.w3.org/2000/svg" width="20" height="20" fill="none" xmlns:v="https://vecta.io/nano"><mask id="A" maskUnits="userSpaceOnUse" x="0" y="0" width="20" height="20" mask-type="alpha"><path fill="#d9d9d9" d="M0 0h20v20H0z"/></mask><g mask="url(#A)"><path d="M7.548 14.584c-.421 0-.777-.146-1.069-.437s-.437-.648-.437-1.069V3.59c0-.421.146-.777.438-1.069s.648-.437 1.069-.437h6.987c.421 0 .777.146 1.069.438s.437.648.437 1.069v9.487c0 .421-.146.777-.437 1.069s-.648.438-1.069.438H7.548zm0-1.25h6.987c.064 0 .123-.027.176-.08s.08-.112.08-.176V3.59c0-.064-.027-.123-.08-.176s-.112-.08-.176-.08H7.548c-.064 0-.123.027-.176.08s-.08.112-.08.176v9.487c0 .064.027.123.08.176s.112.08.176.08zM4.631 17.5c-.421 0-.777-.146-1.069-.437s-.437-.648-.437-1.069V5.882c0-.177.06-.326.18-.446s.268-.179.445-.179.326.06.446.179.179.268.179.446v10.112c0 .064.027.123.08.176s.112.08.176.08h7.612c.177 0 .326.06.446.179s.179.268.179.446-.06.326-.179.445-.268.18-.446.18H4.631z" fill="#000"/></g></svg>