<svg xmlns="http://www.w3.org/2000/svg" width="24" height="24" fill="none" xmlns:v="https://vecta.io/nano"><mask id="A" maskUnits="userSpaceOnUse" x="0" y="0" width="24" height="24" mask-type="alpha"><path fill="#d9d9d9" d="M0 0h24v24H0z"/></mask><g mask="url(#A)"><path d="M9.404 19.75V18.5h-2.25c-.212 0-.391-.072-.534-.216s-.215-.322-.215-.535.072-.391.215-.534.322-.215.534-.215h1.25V7h-1.25c-.212 0-.391-.072-.534-.216s-.215-.322-.215-.535.072-.391.215-.534.322-.215.534-.215h2.25V4.25c0-.213.072-.391.216-.534s.322-.216.535-.216.391.072.534.216.215.322.215.534V5.5H13V4.25c0-.213.072-.391.216-.534s.322-.216.535-.216.391.072.534.216.215.322.215.534v1.327c.873.144 1.591.541 2.155 1.191s.845 1.436.845 2.357a3.53 3.53 0 0 1-.279 1.412c-.186.432-.435.804-.748 1.115.622.286 1.115.714 1.48 1.286s.547 1.217.547 1.938c0 1.023-.348 1.883-1.045 2.58s-1.557 1.045-2.58 1.045H14.5v1.25c0 .212-.072.391-.216.534s-.322.216-.534.216-.391-.072-.534-.216S13 19.963 13 19.75V18.5h-2.096v1.25c0 .212-.072.391-.216.534s-.322.216-.534.216-.391-.072-.534-.216-.215-.322-.215-.534zm.5-8.5h3.971c.601 0 1.106-.204 1.514-.611S16 9.726 16 9.125s-.204-1.106-.611-1.513S14.477 7 13.875 7H9.904v4.25zm0 5.75h4.971c.601 0 1.106-.204 1.514-.611s.611-.912.611-1.514-.204-1.106-.611-1.514-.912-.611-1.514-.611H9.904V17z" fill="#000"/></g></svg>