<svg xmlns="http://www.w3.org/2000/svg" width="20" height="20" fill="none" xmlns:v="https://vecta.io/nano"><mask id="A" maskUnits="userSpaceOnUse" x="0" y="0" width="20" height="20" mask-type="alpha"><path fill="#d9d9d9" d="M0 0h20v20H0z"/></mask><g mask="url(#A)"><path d="M6.09 17.083a1.45 1.45 0 0 1-1.064-.443 1.45 1.45 0 0 1-.442-1.064V5h-.208c-.177 0-.325-.06-.445-.18s-.18-.268-.18-.445.06-.326.18-.445.268-.18.445-.18H7.5a.71.71 0 0 1 .216-.522.71.71 0 0 1 .521-.215h3.526a.71.71 0 0 1 .521.215.71.71 0 0 1 .216.522h3.125c.177 0 .325.06.445.18s.18.268.18.445-.06.326-.18.445-.268.18-.445.18h-.208v10.577a1.45 1.45 0 0 1-.443 1.064 1.45 1.45 0 0 1-1.064.443H6.09zM14.167 5H5.833v10.577a.25.25 0 0 0 .256.256h7.82a.25.25 0 0 0 .257-.256V5zm-5.705 9.167c.177 0 .325-.06.445-.179s.179-.268.179-.446v-6.25c0-.177-.06-.326-.18-.445s-.268-.18-.445-.18-.325.06-.445.18-.179.268-.179.445v6.25c0 .177.06.326.18.446s.268.179.446.179zm3.077 0c.177 0 .325-.06.445-.179s.179-.268.179-.446v-6.25c0-.177-.06-.326-.18-.445s-.268-.18-.446-.18-.325.06-.445.18-.179.268-.179.445v6.25c0 .177.06.326.18.446s.268.179.445.179z" fill="#000"/></g></svg>