<svg xmlns="http://www.w3.org/2000/svg" width="20" height="20" fill="none" xmlns:v="https://vecta.io/nano"><mask id="A" maskUnits="userSpaceOnUse" x="0" y="0" width="20" height="20" mask-type="alpha"><path fill="#d9d9d9" d="M0 0h20v20H0z"/></mask><g mask="url(#A)"><path d="M4.167 15.833h1.051l8.53-8.53-1.051-1.051-8.53 8.53v1.051zm-.497 1.25c-.213 0-.392-.072-.537-.217s-.217-.323-.217-.537v-1.444c0-.203.039-.397.117-.581a1.5 1.5 0 0 1 .322-.481L13.909 3.275c.126-.114.265-.203.417-.265a1.25 1.25 0 0 1 .479-.094 1.36 1.36 0 0 1 .485.089c.157.059.295.154.416.283l1.018 1.03a1.03 1.03 0 0 1 .277.417 1.42 1.42 0 0 1 .082.471c0 .168-.029.328-.086.48a1.18 1.18 0 0 1-.273.418L6.176 16.644a1.5 1.5 0 0 1-.481.322c-.184.078-.378.117-.581.117H3.67zm9.544-10.297l-.517-.535 1.051 1.051-.535-.516z" fill="#636263"/></g></svg>