<svg xmlns="http://www.w3.org/2000/svg" width="20" height="20" fill="none" xmlns:v="https://vecta.io/nano"><path d="M10 14.731a.78.78 0 0 0 .808-.808.78.78 0 0 0-.808-.807.78.78 0 0 0-.808.807.78.78 0 0 0 .808.808zm0-3.654c.213 0 .391-.072.534-.216s.216-.322.216-.534v-4.5c0-.213-.072-.391-.216-.534s-.322-.216-.535-.216-.391.072-.534.216-.216.322-.216.534v4.5c0 .213.072.391.216.534s.322.216.535.216zm.001 8.423c-1.314 0-2.549-.249-3.705-.748s-2.162-1.175-3.017-2.03-1.532-1.86-2.031-3.016S.5 11.316.5 10.002s.249-2.549.748-3.705 1.175-2.162 2.03-3.017 1.86-1.532 3.016-2.031S8.684.5 9.998.5s2.549.249 3.705.748 2.162 1.175 3.017 2.03 1.532 1.86 2.031 3.016.748 2.39.748 3.704-.249 2.549-.748 3.705-1.175 2.162-2.03 3.017-1.86 1.532-3.016 2.031-2.39.748-3.704.748zM10 18c2.233 0 4.125-.775 5.675-2.325S18 12.233 18 10s-.775-4.125-2.325-5.675S12.233 2 10 2s-4.125.775-5.675 2.325S2 7.767 2 10s.775 4.125 2.325 5.675S7.767 18 10 18z" fill="#e30606"/></svg>