<svg xmlns="http://www.w3.org/2000/svg" width="24" height="24" fill="none" xmlns:v="https://vecta.io/nano"><mask id="A" maskUnits="userSpaceOnUse" x="0" y="0" width="24" height="24" mask-type="alpha"><path fill="#d9d9d9" d="M0 0h24v24H0z"/></mask><g mask="url(#A)"><path d="M11.8 20.006a1.92 1.92 0 0 1-1.413-.59C9.996 19.022 9.8 18.55 9.8 18s.196-1.021.587-1.413S11.25 16 11.8 16l.6-.575c.133-.133.287-.238.463-.312A1.35 1.35 0 0 1 13.4 15c.383 0 .713.142.987.425s.413.617.413 1v.425c0 .333.108.608.325.825s.492.325.825.325c.25 0 .475-.075.675-.225s.342-.342.425-.575l.3-.825a2.23 2.23 0 0 1 .715-.988c.327-.258.707-.387 1.14-.387.183-.467.329-.95.438-1.45a7.3 7.3 0 0 0 .163-1.55c0-1.483-.368-2.834-1.103-4.053S17 5.769 15.8 5.069V6c0 .55-.196 1.021-.588 1.412S14.35 8 13.8 8h-1v2c0 .283-.096.521-.288.713S12.083 11 11.8 11h-1v1.7c0 .367-.125.675-.375.925S9.867 14 9.5 14c-.233 0-.446-.05-.637-.15s-.346-.242-.463-.425L6.8 11h-1v1c0 .517-.172.958-.516 1.325a2.04 2.04 0 0 1-1.24.65c.433 1.733 1.368 3.172 2.803 4.316s3.086 1.715 4.953 1.715zm2-6.006c-.283 0-.521-.096-.713-.287S12.8 13.283 12.8 13s.096-.521.287-.713.429-.287.713-.287h1c.283 0 .521.096.712.287s.288.429.288.713-.096.521-.288.713-.429.287-.712.287h-1zm2.325-3c-.333 0-.596-.129-.787-.387a.91.91 0 0 1-.138-.863l.375-1.1c.067-.2.183-.358.35-.475a.94.94 0 0 1 .55-.175c.333 0 .596.129.787.387a.91.91 0 0 1 .137.863l-.375 1.1c-.067.2-.183.358-.35.475a.94.94 0 0 1-.55.175zm-4.323 10.5c-1.314 0-2.549-.249-3.705-.748s-2.162-1.175-3.017-2.03-1.532-1.86-2.031-3.016-.748-2.39-.748-3.704.249-2.549.748-3.705 1.175-2.162 2.03-3.017 1.86-1.532 3.016-2.031 2.39-.748 3.704-.748 2.549.249 3.705.748 2.162 1.175 3.017 2.03 1.532 1.86 2.031 3.016.748 2.39.748 3.704-.249 2.549-.748 3.705-1.175 2.162-2.03 3.017-1.86 1.532-3.016 2.031-2.39.748-3.704.748z" fill="#000"/></g></svg>