<svg xmlns="http://www.w3.org/2000/svg" width="24" height="24" fill="none" xmlns:v="https://vecta.io/nano"><mask id="A" maskUnits="userSpaceOnUse" x="0" y="0" width="24" height="24" mask-type="alpha"><path fill="#d9d9d9" d="M0 0h24v24H0z"/></mask><g mask="url(#A)"><path d="M12.597 11.642c.425-.463.74-.994.944-1.594a5.73 5.73 0 0 0 .306-1.856 5.73 5.73 0 0 0-.306-1.856 4.44 4.44 0 0 0-.944-1.594 3.33 3.33 0 0 1 2.188 1.138 3.38 3.38 0 0 1 .87 2.313 3.38 3.38 0 0 1-.87 2.313 3.33 3.33 0 0 1-2.187 1.138zm4.863 7.666c.126-.23.221-.474.287-.733s.099-.521.099-.787v-.827c0-.545-.111-1.064-.333-1.556s-.537-.915-.944-1.267a8.7 8.7 0 0 1 2.117 1.033c.645.433.967 1.03.967 1.79v.827c0 .422-.148.78-.443 1.076s-.654.443-1.076.443h-.675zm2.194-8.558h-1.25c-.212 0-.391-.072-.534-.216s-.216-.322-.216-.535.072-.391.216-.534.322-.216.534-.216h1.25V8c0-.213.072-.391.216-.534s.322-.216.535-.216.391.072.534.216.215.322.215.534v1.25h1.25c.213 0 .391.072.535.216s.215.322.215.535-.072.391-.215.534-.322.216-.535.216h-1.25V12c0 .213-.072.391-.216.534s-.322.216-.535.216-.391-.072-.534-.216-.216-.322-.216-.534v-1.25zm-11.308.942a3.37 3.37 0 0 1-2.472-1.028 3.37 3.37 0 0 1-1.028-2.472 3.37 3.37 0 0 1 1.028-2.472 3.37 3.37 0 0 1 2.472-1.028c.963 0 1.786.343 2.472 1.028s1.028 1.509 1.028 2.472a3.37 3.37 0 0 1-1.028 2.472 3.37 3.37 0 0 1-2.472 1.028zm-7.5 6.096v-.704c0-.49.133-.943.399-1.36s.621-.738 1.066-.963c.989-.484 1.986-.848 2.992-1.09s2.02-.364 3.043-.364 2.037.121 3.043.364 2.003.606 2.991 1.09c.445.224.8.545 1.066.963a2.48 2.48 0 0 1 .399 1.36v.704c0 .422-.148.78-.443 1.076s-.654.443-1.076.443H2.366c-.422 0-.781-.148-1.076-.443s-.443-.654-.443-1.076zm7.5-7.596c.55 0 1.021-.196 1.413-.588s.588-.862.588-1.412-.196-1.021-.588-1.412-.863-.588-1.413-.588-1.021.196-1.412.588-.587.862-.587 1.412.196 1.021.587 1.412.863.588 1.412.588zm-6 7.616h12v-.723a.98.98 0 0 0-.176-.562c-.117-.172-.277-.313-.478-.422a12.86 12.86 0 0 0-2.635-.965c-.896-.219-1.799-.328-2.711-.328s-1.815.109-2.711.328A12.86 12.86 0 0 0 3 16.1a1.33 1.33 0 0 0-.478.422.98.98 0 0 0-.176.563v.723z" fill="#000"/></g></svg>