<svg xmlns="http://www.w3.org/2000/svg" width="28" height="28" fill="none" xmlns:v="https://vecta.io/nano"><mask id="A" maskUnits="userSpaceOnUse" x="0" y="0" width="28" height="28" mask-type="alpha"><path fill="#d9d9d9" d="M0 0h28v28H0z"/></mask><g mask="url(#A)"><path d="M2.098 19.932c0-.601.155-1.138.466-1.61s.725-.839 1.243-1.101c1.109-.542 2.224-.96 3.345-1.255s2.353-.441 3.696-.441 2.575.147 3.696.441a18 18 0 0 1 3.345 1.255c.519.262.933.629 1.243 1.101s.465 1.009.465 1.61v.821c0 .47-.172.882-.517 1.238a1.68 1.68 0 0 1-1.255.534H3.87c-.492 0-.91-.172-1.255-.517a1.71 1.71 0 0 1-.517-1.255v-.821zm22.032 2.594h-2.65a3.65 3.65 0 0 0 .335-.855 3.7 3.7 0 0 0 .116-.918v-.965c0-.766-.187-1.495-.562-2.189s-.907-1.289-1.596-1.786a12.29 12.29 0 0 1 2.228.542 14.97 14.97 0 0 1 2.013.867c.603.322 1.068.701 1.396 1.137s.492.913.492 1.429v.965a1.71 1.71 0 0 1-.517 1.255c-.345.345-.763.517-1.255.517zm-13.282-8.885a3.93 3.93 0 0 1-2.884-1.199 3.93 3.93 0 0 1-1.199-2.884 3.93 3.93 0 0 1 1.199-2.884 3.93 3.93 0 0 1 2.884-1.2 3.93 3.93 0 0 1 2.884 1.2 3.93 3.93 0 0 1 1.199 2.884 3.93 3.93 0 0 1-1.199 2.884 3.93 3.93 0 0 1-2.884 1.199zm10.074-4.083a3.93 3.93 0 0 1-1.199 2.884 3.93 3.93 0 0 1-2.884 1.199c-.132 0-.299-.015-.503-.045l-.503-.099a6.19 6.19 0 0 0 1.061-1.841c.247-.674.37-1.374.37-2.1s-.126-1.423-.378-2.092a6.74 6.74 0 0 0-1.053-1.846c.167-.06.335-.099.503-.117s.335-.027.503-.027a3.93 3.93 0 0 1 2.884 1.2 3.93 3.93 0 0 1 1.199 2.884zM3.848 20.776h14v-.844c0-.244-.061-.46-.183-.65s-.315-.356-.58-.498a13.76 13.76 0 0 0-2.966-1.125c-1.017-.255-2.108-.382-3.271-.382s-2.254.127-3.271.382a13.76 13.76 0 0 0-2.966 1.125c-.265.142-.458.308-.58.498s-.183.407-.183.65v.844zm7-8.885c.642 0 1.191-.229 1.648-.685s.685-1.006.685-1.648-.228-1.191-.685-1.648-1.006-.685-1.648-.685-1.191.228-1.648.685-.685 1.006-.685 1.648.228 1.191.685 1.648 1.006.685 1.648.685z" fill="#000"/></g></svg>