<svg xmlns="http://www.w3.org/2000/svg" width="16" height="16" fill="none" xmlns:v="https://vecta.io/nano"><mask id="A" maskUnits="userSpaceOnUse" x="0" y="0" width="16" height="16" mask-type="alpha"><path fill="#d9d9d9" d="M0 0h16v16H0z"/></mask><g mask="url(#A)"><path d="M7.987 13.667c-1.34 0-2.521-.409-3.543-1.227A5.45 5.45 0 0 1 2.478 9.3c-.036-.132-.014-.254.065-.365s.191-.176.336-.194a.52.52 0 0 1 .367.081c.108.072.184.177.226.317a4.52 4.52 0 0 0 1.64 2.537 4.52 4.52 0 0 0 2.875.992 4.5 4.5 0 0 0 3.308-1.358A4.5 4.5 0 0 0 12.653 8a4.5 4.5 0 0 0-1.358-3.308 4.5 4.5 0 0 0-3.308-1.358c-.728 0-1.411.162-2.047.485a5.04 5.04 0 0 0-1.645 1.335h1.244c.142 0 .26.048.356.144s.144.215.144.356-.048.26-.144.356-.215.144-.356.144H3.256c-.171 0-.314-.058-.429-.173s-.173-.259-.173-.429V3.269c0-.142.048-.26.144-.356s.215-.144.357-.144.26.048.356.144.143.215.143.356v1.08a5.66 5.66 0 0 1 1.944-1.487 5.58 5.58 0 0 1 2.39-.529c.787 0 1.523.149 2.21.446a5.74 5.74 0 0 1 1.797 1.213 5.74 5.74 0 0 1 1.213 1.797c.297.687.446 1.424.446 2.21s-.149 1.523-.446 2.21-.702 1.286-1.213 1.797a5.74 5.74 0 0 1-1.797 1.213c-.687.297-1.424.446-2.21.446zm.519-5.869l1.833 1.833c.092.092.14.208.142.348a.47.47 0 0 1-.142.355c-.097.097-.214.145-.351.145a.48.48 0 0 1-.351-.145l-1.95-1.95c-.062-.062-.108-.13-.137-.204s-.043-.15-.043-.228V5.167c0-.142.048-.26.144-.356s.215-.144.356-.144.26.048.356.144.144.215.144.356v2.631z" fill="#636263"/></g></svg>