<svg xmlns="http://www.w3.org/2000/svg" width="24" height="24" fill="none" xmlns:v="https://vecta.io/nano"><mask id="A" maskUnits="userSpaceOnUse" x="0" y="0" width="24" height="24" mask-type="alpha"><path fill="#d9d9d9" d="M0 0h24v24H0z"/></mask><g mask="url(#A)"><path d="M6 19h3.346v-5.039c0-.256.087-.471.26-.644s.388-.26.644-.26h3.5c.256 0 .471.087.644.26s.26.388.26.644V19H18v-8.846c0-.051-.011-.098-.034-.139s-.053-.079-.091-.111l-5.692-4.279A.27.27 0 0 0 12 5.558c-.07 0-.131.022-.183.067L6.125 9.904c-.038.032-.069.069-.091.111S6 10.103 6 10.154V19zm-1.5 0v-8.846c0-.286.064-.557.192-.813s.305-.467.531-.633l5.693-4.288c.316-.241.677-.362 1.083-.362a1.75 1.75 0 0 1 1.086.362l5.693 4.289c.226.166.403.377.531.633s.192.527.192.813V19a1.44 1.44 0 0 1-.443 1.057c-.296.296-.648.443-1.057.443h-3.942c-.256 0-.471-.087-.644-.26s-.26-.388-.26-.644v-5.038h-2.308v5.038c0 .256-.087.471-.26.644s-.388.26-.644.26H6a1.44 1.44 0 0 1-1.057-.443A1.44 1.44 0 0 1 4.5 19z" fill="#ccc"/></g></svg>