<svg xmlns="http://www.w3.org/2000/svg" width="28" height="28" fill="none" xmlns:v="https://vecta.io/nano"><mask id="A" maskUnits="userSpaceOnUse" x="0" y="0" width="28" height="28" mask-type="alpha"><path fill="#d9d9d9" d="M0 0h28v28H0z"/></mask><g mask="url(#A)"><path d="M18.788 16.693l4.243-3.646.467.036c.256.03.456.137.6.32s.215.381.215.594c0 .122-.023.242-.068.359s-.129.22-.25.309l-3.123 2.721.938 4.083c.012.03.018.064.018.102v.102c0 .257-.089.471-.266.642s-.388.257-.631.257a1.15 1.15 0 0 1-.24-.027.67.67 0 0 1-.238-.103l-.377-.233-1.286-5.517zm-2.483-7.698l-1.18-2.769.162-.395c.074-.183.189-.324.345-.423a.89.89 0 0 1 .486-.149.96.96 0 0 1 .492.141.83.83 0 0 1 .353.413l1.424 3.377-2.082-.195zM8.575 19.629l3.675-2.217 3.675 2.246-.963-4.2 3.237-2.8-4.258-.379-1.692-3.967-1.692 3.937-4.258.379 3.238 2.829-.963 4.171zm-2.098 1.234l1.115-4.772-3.704-3.21c-.133-.109-.226-.233-.278-.371a1.16 1.16 0 0 1-.078-.414 1.08 1.08 0 0 1 .255-.689c.17-.212.405-.334.706-.365l4.89-.429 1.89-4.495c.088-.211.224-.369.409-.475s.373-.158.567-.158a1.14 1.14 0 0 1 .569.158.95.95 0 0 1 .412.475l1.89 4.495 4.89.429c.301.031.536.153.706.365a1.08 1.08 0 0 1 .255.689 1.16 1.16 0 0 1-.078.417.89.89 0 0 1-.278.369l-3.704 3.21 1.119 4.773a.8.8 0 0 1 .025.235c0 .3-.105.552-.316.755s-.456.305-.736.305c-.053 0-.239-.055-.559-.164L12.25 19.47l-4.191 2.524c-.09.051-.183.091-.28.12s-.189.044-.277.044a1.06 1.06 0 0 1-.817-.384c-.228-.256-.298-.559-.208-.911z" fill="#000"/></g></svg>