<svg xmlns="http://www.w3.org/2000/svg" width="24" height="24" fill="none" xmlns:v="https://vecta.io/nano"><mask id="A" maskUnits="userSpaceOnUse" x="0" y="0" width="24" height="24" mask-type="alpha"><path fill="#d9d9d9" d="M0 0h24v24H0z"/></mask><g mask="url(#A)"><path d="M12 21.5c-1.303 0-2.532-.25-3.687-.749a9.63 9.63 0 0 1-3.024-2.04c-.86-.86-1.54-1.868-2.039-3.024S2.5 13.303 2.5 12c0-1.313.25-2.545.749-3.695s1.179-2.156 2.039-3.016a9.63 9.63 0 0 1 3.024-2.039C9.468 2.75 10.698 2.5 12 2.5c1.313 0 2.545.25 3.695.749s2.156 1.179 3.016 2.039 1.54 1.866 2.04 3.016.749 2.382.749 3.695c0 1.303-.25 2.532-.749 3.688s-1.179 2.164-2.04 3.024-1.866 1.54-3.016 2.04-2.383.749-3.695.749zm0-1.521a13.67 13.67 0 0 0 1.289-2.048c.349-.689.633-1.441.852-2.258H9.86c.232.842.519 1.608.862 2.296s.768 1.358 1.279 2.009zm-1.937-.275a10.85 10.85 0 0 1-1.033-1.876 12.27 12.27 0 0 1-.711-2.155H4.927a7.84 7.84 0 0 0 2.125 2.618 7.14 7.14 0 0 0 3.012 1.413zm3.873 0a7.14 7.14 0 0 0 3.012-1.413 7.84 7.84 0 0 0 2.125-2.618h-3.392a15.71 15.71 0 0 1-.76 2.164c-.305.701-.633 1.323-.984 1.866zm-9.638-5.531h3.717l-.137-1.093L7.837 12l.042-1.08.137-1.093H4.298c-.096.34-.17.693-.221 1.06a8.02 8.02 0 0 0 0 2.227c.051.367.125.72.221 1.06zm5.217 0h4.97l.136-1.084.042-1.089-.042-1.089-.136-1.084h-4.97l-.136 1.084L9.337 12l.042 1.089.136 1.084zm6.469 0h3.718c.096-.34.17-.693.221-1.059S20 12.376 20 12s-.026-.747-.077-1.114-.125-.72-.221-1.059h-3.718l.137 1.093.042 1.08-.042 1.08-.137 1.093zm-.304-5.846h3.392c-.535-1.051-1.238-1.924-2.111-2.617s-1.881-1.168-3.026-1.423c.383.582.724 1.219 1.023 1.91a13.74 13.74 0 0 1 .721 2.131zm-5.821 0h4.281a12.87 12.87 0 0 0-.876-2.311c-.352-.705-.774-1.37-1.264-1.995-.491.625-.912 1.29-1.264 1.995a12.87 12.87 0 0 0-.876 2.311zm-4.933 0h3.392c.182-.729.422-1.44.721-2.131a12.42 12.42 0 0 1 1.023-1.91c-1.151.255-2.162.731-3.031 1.428S5.462 7.282 4.927 8.327z" fill="#000"/></g></svg>