<svg xmlns="http://www.w3.org/2000/svg" width="24" height="24" fill="none" xmlns:v="https://vecta.io/nano"><mask id="A" maskUnits="userSpaceOnUse" x="0" y="0" width="24" height="24" mask-type="alpha"><path fill="#d9d9d9" d="M0 0h24v24H0z"/></mask><g mask="url(#A)"><path d="M11.25 12.75c.218 0-.102 0 .126 0l.624.002h.5l.25-.002H16c.212 0 .391-.072.534-.216s.216-.322.216-.534-.072-.391-.216-.534-.322-.216-.534-.216h-3.25-.32-.395-.507-.277H8c-.213 0-.391.072-.534.216s-.216.322-.216.534.072.391.216.534.322.216.534.216h3.25zm.752 8.75c-1.314 0-2.549-.249-3.705-.748s-2.162-1.175-3.017-2.03-1.532-1.86-2.031-3.016-.748-2.39-.748-3.704.249-2.549.748-3.705 1.175-2.162 2.03-3.017 1.86-1.532 3.016-2.031 2.39-.748 3.704-.748 2.549.249 3.705.748 2.162 1.175 3.017 2.03 1.532 1.86 2.031 3.016.748 2.39.748 3.704-.249 2.549-.748 3.705-1.175 2.162-2.03 3.017-1.86 1.532-3.016 2.031-2.39.748-3.704.748zM12 20c2.233 0 4.125-.775 5.675-2.325S20 14.233 20 12s-.775-4.125-2.325-5.675S14.233 4 12 4s-4.125.775-5.675 2.325S4 9.767 4 12s.775 4.125 2.325 5.675S9.767 20 12 20z" fill="#636263"/></g></svg>