<svg xmlns="http://www.w3.org/2000/svg" width="24" height="24" fill="none" xmlns:v="https://vecta.io/nano"><mask id="A" maskUnits="userSpaceOnUse" x="0" y="0" width="24" height="24" mask-type="alpha"><path fill="#d9d9d9" d="M0 0h24v24H0z"/></mask><g mask="url(#A)"><path d="M15.221 13.798l.669-2.415a.86.86 0 0 0-.017-.547.9.9 0 0 0-.344-.447l-2.048-1.404c-.12-.094-.254-.113-.399-.058s-.24.16-.284.314l-.669 2.415a.86.86 0 0 0 .018.547.9.9 0 0 0 .344.447l2.048 1.404c.12.094.254.113.399.058s.24-.16.284-.314zM4.308 19.056l-.623-.294a1.83 1.83 0 0 1-1.06-1.127 2.02 2.02 0 0 1 .075-1.558l1.608-3.467v6.446zM8.5 20.885c-.55 0-1.021-.198-1.412-.595a1.95 1.95 0 0 1-.588-1.42v-5.35l2.444 6.715.134.343a1.08 1.08 0 0 0 .185.307H8.5zm4.756-.548a1.79 1.79 0 0 1-1.396-.056c-.459-.208-.774-.547-.944-1.019L6.673 7.575c-.17-.472-.15-.935.061-1.388s.552-.766 1.024-.937l6.967-2.548c.472-.171.935-.15 1.388.06a1.74 1.74 0 0 1 .937 1.024l4.258 11.686a1.77 1.77 0 0 1-.056 1.388 1.72 1.72 0 0 1-1.019.937l-6.977 2.538zm-.517-1.423l6.973-2.538c.083-.032.143-.085.178-.159s.037-.152.005-.236L15.64 4.308c-.032-.083-.085-.143-.159-.178s-.152-.037-.236-.005L8.288 6.664c-.083.032-.143.085-.178.159s-.037.152-.005.236l4.239 11.673c.032.083.085.143.159.178s.152.037.236.005z" fill="#ccc"/></g></svg>