<svg xmlns="http://www.w3.org/2000/svg" width="24" height="24" fill="none" xmlns:v="https://vecta.io/nano"><mask id="A" maskUnits="userSpaceOnUse" x="0" y="0" width="24" height="24" mask-type="alpha"><path fill="#d9d9d9" d="M0 0h24v24H0z"/></mask><g mask="url(#A)"><path d="M12 11.692a3.37 3.37 0 0 1-2.472-1.028A3.37 3.37 0 0 1 8.5 8.192c0-.963.343-1.786 1.028-2.472S11.038 4.692 12 4.692s1.786.343 2.472 1.028S15.5 7.23 15.5 8.192a3.37 3.37 0 0 1-1.028 2.472A3.37 3.37 0 0 1 12 11.692zm-7.5 6.096v-.704c0-.49.133-.943.399-1.36s.622-.738 1.066-.963c.988-.484 1.985-.848 2.991-1.09s2.02-.364 3.043-.364 2.037.121 3.043.364 2.003.606 2.991 1.09c.445.224.8.545 1.066.963s.399.871.399 1.36v.704c0 .422-.148.78-.443 1.076s-.654.443-1.076.443H6.019c-.422 0-.781-.148-1.076-.443S4.5 18.21 4.5 17.789zm1.5.019h12v-.723a.98.98 0 0 0-.176-.562c-.117-.172-.277-.313-.478-.422-.862-.424-1.74-.746-2.636-.965s-1.799-.328-2.711-.328-1.815.109-2.711.328-1.774.54-2.635.965c-.201.109-.36.25-.478.422a.98.98 0 0 0-.176.563v.723zm6-7.616c.55 0 1.021-.196 1.412-.588S14 8.742 14 8.192s-.196-1.021-.588-1.412-.862-.588-1.412-.588-1.021.196-1.412.588S10 7.642 10 8.192s.196 1.021.588 1.412.862.588 1.412.588z" fill="#000"/></g></svg>