<svg xmlns="http://www.w3.org/2000/svg" width="24" height="24" fill="none" xmlns:v="https://vecta.io/nano"><mask id="A" maskUnits="userSpaceOnUse" x="0" y="0" width="24" height="24" mask-type="alpha"><path fill="#d9d9d9" d="M0 0h24v24H0z"/></mask><g mask="url(#A)"><path d="M11.25 19v-3.427a4.51 4.51 0 0 1-2.293-1.018c-.661-.553-1.109-1.248-1.345-2.086-1.154-.137-2.128-.627-2.921-1.469S3.5 9.158 3.5 8v-.692a1.74 1.74 0 0 1 .531-1.277A1.74 1.74 0 0 1 5.308 5.5h2.019v-.192a1.74 1.74 0 0 1 .531-1.277A1.74 1.74 0 0 1 9.135 3.5h5.73a1.74 1.74 0 0 1 1.277.531 1.74 1.74 0 0 1 .531 1.277V5.5h2.019a1.74 1.74 0 0 1 1.277.531 1.74 1.74 0 0 1 .531 1.277V8c0 1.158-.397 2.158-1.19 3s-1.767 1.332-2.921 1.469c-.236.837-.684 1.532-1.345 2.086a4.51 4.51 0 0 1-2.293 1.018V19h2.808c.213 0 .391.072.534.216s.216.322.216.534-.072.391-.216.534-.322.215-.534.215H8.442c-.213 0-.391-.072-.534-.216s-.216-.322-.216-.535.072-.391.216-.534S8.23 19 8.442 19h2.808zm-3.923-8.142V7H5.308A.3.3 0 0 0 5 7.308V8a2.8 2.8 0 0 0 .656 1.833c.437.531.994.872 1.671 1.025zm4.675 3.277c.877 0 1.621-.307 2.233-.92s.918-1.358.918-2.234V5.308A.3.3 0 0 0 14.846 5H9.154a.3.3 0 0 0-.308.308v5.673a3.04 3.04 0 0 0 .921 2.234c.614.613 1.359.92 2.235.92zm4.671-3.277c.677-.153 1.234-.494 1.671-1.025A2.8 2.8 0 0 0 19 8v-.692A.3.3 0 0 0 18.692 7h-2.019v3.858z" fill="#ccc"/></g></svg>