<svg xmlns="http://www.w3.org/2000/svg" width="28" height="28" fill="none" xmlns:v="https://vecta.io/nano"><mask id="A" maskUnits="userSpaceOnUse" x="0" y="0" width="28" height="28" mask-type="alpha"><path fill="#d9d9d9" d="M0 0h28v28H0z"/></mask><g mask="url(#A)"><path d="M14 13.641a3.93 3.93 0 0 1-2.884-1.199 3.93 3.93 0 0 1-1.2-2.884 3.93 3.93 0 0 1 1.2-2.884A3.93 3.93 0 0 1 14 5.474a3.93 3.93 0 0 1 2.884 1.2 3.93 3.93 0 0 1 1.2 2.884 3.93 3.93 0 0 1-1.2 2.884A3.93 3.93 0 0 1 14 13.641zm-8.75 7.112v-.821c0-.571.155-1.1.465-1.587s.725-.861 1.244-1.123c1.153-.565 2.316-.989 3.49-1.272a15.11 15.11 0 0 1 7.101 0c1.173.283 2.337.707 3.49 1.272.519.262.934.636 1.244 1.123s.465 1.016.465 1.587v.821a1.71 1.71 0 0 1-.517 1.255 1.71 1.71 0 0 1-1.255.517H7.022a1.71 1.71 0 0 1-1.255-.517 1.71 1.71 0 0 1-.517-1.255zm1.75.022h14v-.844c0-.236-.068-.455-.205-.656s-.323-.365-.557-.492c-1.005-.495-2.03-.87-3.075-1.125s-2.099-.382-3.163-.382-2.118.127-3.162.382-2.07.63-3.075 1.125c-.235.127-.42.291-.557.492s-.205.42-.205.656v.844zm7-8.885c.642 0 1.191-.229 1.648-.685s.685-1.006.685-1.648-.228-1.191-.685-1.648-1.006-.685-1.648-.685-1.191.228-1.648.685-.685 1.006-.685 1.648.228 1.191.685 1.648 1.006.685 1.648.685z" fill="#000"/></g></svg>