<svg xmlns="http://www.w3.org/2000/svg" width="20" height="20" fill="none" xmlns:v="https://vecta.io/nano"><mask id="A" maskUnits="userSpaceOnUse" x="0" y="0" width="20" height="20" mask-type="alpha"><path fill="#d9d9d9" d="M0 0h20v20H0z"/></mask><g mask="url(#A)"><path d="M10 14.263c.956 0 1.767-.332 2.432-.997s.997-1.476.997-2.432-.332-1.767-.997-2.432-1.476-.998-2.432-.998-1.767.332-2.432.998-.998 1.476-.998 2.432.333 1.767.998 2.432 1.476.997 2.432.997zm0-1.25c-.615 0-1.132-.21-1.551-.628s-.628-.936-.628-1.551.209-1.133.628-1.551.936-.628 1.551-.628 1.133.209 1.551.628.628.936.628 1.551-.209 1.133-.628 1.551-.936.628-1.551.628zm-6.41 4.07c-.421 0-.777-.146-1.069-.437s-.437-.648-.437-1.069V6.09c0-.421.146-.777.438-1.069s.648-.437 1.069-.437h2.545l1.09-1.181a1.47 1.47 0 0 1 .496-.356c.194-.087.398-.13.613-.13h3.333c.215 0 .419.043.613.13a1.47 1.47 0 0 1 .496.356l1.09 1.181h2.545c.421 0 .777.146 1.069.438s.438.648.438 1.069v9.487c0 .421-.146.777-.437 1.069s-.648.438-1.069.438H3.59zm0-1.25h12.82a.25.25 0 0 0 .256-.256V6.09a.25.25 0 0 0-.256-.256h-3.102l-1.529-1.667H8.221L6.692 5.833H3.59a.25.25 0 0 0-.256.256v9.487a.25.25 0 0 0 .256.256z" fill="#636263"/></g></svg>