<svg width="8" height="10" viewBox="0 0 8 10" fill="none" xmlns="http://www.w3.org/2000/svg">
<path d="M0.583008 8.70367V1.29658C0.583008 1.07658 0.658494 0.896026 0.809466 0.754915C0.960438 0.613942 1.13662 0.543457 1.33801 0.543457C1.40092 0.543457 1.4669 0.552554 1.53592 0.570749C1.60495 0.588804 1.67086 0.616026 1.73363 0.652415L7.56363 4.36387C7.67808 4.44193 7.76384 4.5354 7.82092 4.64429C7.87815 4.75332 7.90676 4.87193 7.90676 5.00012C7.90676 5.12832 7.87815 5.24693 7.82092 5.35596C7.76384 5.46485 7.67808 5.55832 7.56363 5.63637L1.73363 9.34783C1.67072 9.38422 1.6046 9.41144 1.5353 9.4295C1.46613 9.44769 1.40009 9.45679 1.33717 9.45679C1.13565 9.45679 0.959605 9.3863 0.80905 9.24533C0.658355 9.10422 0.583008 8.92367 0.583008 8.70367Z" fill="black"/>
</svg>
