<svg xmlns="http://www.w3.org/2000/svg" width="16" height="16" fill="none" xmlns:v="https://vecta.io/nano"><mask id="A" maskUnits="userSpaceOnUse" x="0" y="0" width="16" height="16" mask-type="alpha"><path fill="#d9d9d9" d="M0 0h16v16H0z"/></mask><g mask="url(#A)"><path d="M8 7.333c.367 0 .681-.131.942-.392s.392-.575.392-.942-.131-.681-.392-.942-.575-.392-.942-.392-.681.131-.942.392-.392.575-.392.942.131.681.392.942.575.392.942.392zm-.5 5.333v-2.285c-.579-.084-1.088-.31-1.529-.679a2.74 2.74 0 0 1-.897-1.39 3.1 3.1 0 0 1-1.947-.979c-.529-.562-.794-1.228-.794-2v-.461a1.16 1.16 0 0 1 .354-.851 1.16 1.16 0 0 1 .851-.354h1.346v-.128a1.16 1.16 0 0 1 .354-.851 1.16 1.16 0 0 1 .851-.354h3.82a1.16 1.16 0 0 1 .851.354 1.16 1.16 0 0 1 .354.851v.128h1.346a1.16 1.16 0 0 1 .851.354 1.16 1.16 0 0 1 .354.851v.462c0 .772-.265 1.438-.794 2a3.1 3.1 0 0 1-1.947.979 2.74 2.74 0 0 1-.897 1.39c-.441.369-.95.595-1.529.679v2.285h1.872c.142 0 .26.048.356.144s.144.215.144.356-.048.261-.144.356-.215.144-.356.144H5.628c-.142 0-.26-.048-.356-.144s-.144-.215-.144-.356.048-.261.144-.356.215-.144.356-.144H7.5zM4.885 7.238V4.666H3.539a.2.2 0 0 0-.205.205v.462c0 .461.146.868.437 1.222s.663.582 1.114.683zm3.117 2.185c.584 0 1.081-.204 1.489-.613a2.03 2.03 0 0 0 .612-1.489V3.538a.2.2 0 0 0-.058-.147c-.038-.038-.088-.058-.147-.058H6.103a.2.2 0 0 0-.205.205V7.32c0 .584.205 1.08.614 1.489a2.03 2.03 0 0 0 1.49.613zm3.114-2.185c.451-.102.823-.33 1.114-.683s.437-.761.437-1.222v-.461a.2.2 0 0 0-.205-.205h-1.346v2.572z" fill="#000"/></g></svg>