<svg xmlns="http://www.w3.org/2000/svg" width="24" height="24" fill="none" xmlns:v="https://vecta.io/nano"><mask id="A" maskUnits="userSpaceOnUse" x="0" y="0" width="24" height="24" mask-type="alpha"><path fill="#d9d9d9" d="M0 0h24v24H0z"/></mask><g mask="url(#A)"><path d="M9.519 15.615c-1.708 0-3.154-.592-4.338-1.777S3.404 11.208 3.404 9.5s.592-3.154 1.777-4.338 2.631-1.777 4.339-1.777 3.154.592 4.339 1.777 1.777 2.631 1.777 4.338a5.87 5.87 0 0 1-.36 2.046c-.24.65-.56 1.215-.96 1.696l5.754 5.754c.139.138.209.312.213.522s-.068.387-.213.532-.32.217-.527.217-.382-.072-.527-.217l-5.754-5.754a5.72 5.72 0 0 1-1.725.969c-.65.233-1.322.35-2.017.35zm0-1.5c1.289 0 2.38-.447 3.274-1.342s1.342-1.985 1.342-3.274-.447-2.38-1.341-3.274-1.985-1.341-3.274-1.341-2.38.447-3.274 1.341S4.904 8.212 4.904 9.5s.447 2.38 1.342 3.274 1.986 1.342 3.274 1.342z" fill="#000"/></g></svg>