<svg xmlns="http://www.w3.org/2000/svg" width="20" height="20" fill="none" xmlns:v="https://vecta.io/nano"><mask id="A" maskUnits="userSpaceOnUse" x="0" y="0" width="20" height="20" mask-type="alpha"><path fill="#d9d9d9" d="M0 0h20v20H0z"/></mask><g mask="url(#A)"><path d="M9.077 17.917c-.284 0-.53-.094-.736-.283a1.17 1.17 0 0 1-.377-.696l-.204-1.559a3.83 3.83 0 0 1-.687-.314c-.234-.135-.444-.279-.629-.433L5 15.245c-.262.115-.525.127-.789.034a1.14 1.14 0 0 1-.616-.506l-.939-1.628a1.02 1.02 0 0 1-.126-.777c.062-.273.204-.498.426-.675l1.248-.937-.041-.373-.012-.374.012-.361.041-.401-1.248-.937c-.222-.177-.363-.404-.422-.68a1.04 1.04 0 0 1 .131-.78l.931-1.604c.146-.239.352-.407.616-.502s.527-.086.789.03l1.436.606a5.35 5.35 0 0 1 .644-.437 4.25 4.25 0 0 1 .672-.318l.211-1.559a1.17 1.17 0 0 1 .377-.696c.207-.189.452-.283.736-.283h1.846c.284 0 .53.094.736.283a1.17 1.17 0 0 1 .377.696l.204 1.567c.25.091.476.197.679.318a5.6 5.6 0 0 1 .613.429l1.476-.606c.262-.115.525-.125.789-.03s.47.263.616.502l.931 1.612a1.02 1.02 0 0 1 .126.776c-.062.273-.204.498-.426.675l-1.28.961c.03.135.046.26.049.378l.004.353-.008.345c-.005.117-.024.251-.058.402l1.256.945c.222.177.366.402.43.675s.024.532-.123.777l-.944 1.62c-.146.245-.353.413-.62.506s-.532.082-.793-.034l-1.426-.614c-.206.165-.417.31-.631.437s-.435.23-.66.31l-.203 1.567a1.17 1.17 0 0 1-.377.696c-.207.189-.452.283-.736.283H9.077zm.09-1.25h1.638l.3-2.232a4.64 4.64 0 0 0 1.166-.474 5.15 5.15 0 0 0 1.019-.789l2.07.87.821-1.417-1.808-1.362c.069-.216.117-.427.142-.635a5.2 5.2 0 0 0 .038-.628 5.07 5.07 0 0 0-.038-.628c-.025-.202-.072-.408-.142-.619l1.823-1.378-.82-1.417-2.095.883c-.279-.298-.613-.561-1.002-.79a4.31 4.31 0 0 0-1.182-.486l-.263-2.232H9.18l-.276 2.224a4.35 4.35 0 0 0-1.178.461c-.36.207-.704.474-1.031.801l-2.07-.862-.82 1.417 1.8 1.341a3.04 3.04 0 0 0-.146.617c-.028.214-.042.438-.042.675a4.82 4.82 0 0 0 .042.638 3.64 3.64 0 0 0 .138.617l-1.792 1.362.82 1.417 2.063-.875c.316.325.654.591 1.014.798s.758.366 1.194.477l.271 2.224zm.843-4.167a2.41 2.41 0 0 0 1.77-.73 2.41 2.41 0 0 0 .73-1.77 2.41 2.41 0 0 0-.73-1.77 2.41 2.41 0 0 0-1.77-.73c-.702 0-1.294.243-1.776.73A2.42 2.42 0 0 0 7.51 10a2.42 2.42 0 0 0 .724 1.77c.482.487 1.075.73 1.776.73z" fill="#000"/></g></svg>