<svg xmlns="http://www.w3.org/2000/svg" width="28" height="28" fill="none" xmlns:v="https://vecta.io/nano"><mask id="A" maskUnits="userSpaceOnUse" x="0" y="0" width="28" height="28" mask-type="alpha"><path fill="#d9d9d9" d="M0 0h28v28H0z"/></mask><g mask="url(#A)"><path d="M12.708 25.083c-.398 0-.741-.132-1.031-.396a1.64 1.64 0 0 1-.528-.975l-.285-2.183c-.312-.105-.633-.251-.961-.439s-.622-.391-.881-.606L7 21.343a1.45 1.45 0 0 1-1.105.047c-.37-.13-.658-.366-.863-.709l-1.315-2.28c-.205-.342-.264-.705-.177-1.087s.286-.697.597-.946l1.748-1.312-.057-.523-.017-.523.017-.506.057-.562-1.748-1.312a1.62 1.62 0 0 1-.591-.951 1.46 1.46 0 0 1 .183-1.093l1.303-2.246c.205-.335.493-.569.863-.703s.738-.12 1.105.041l2.01.848a7.49 7.49 0 0 1 .901-.611 5.95 5.95 0 0 1 .941-.445l.296-2.183a1.64 1.64 0 0 1 .528-.975c.289-.264.633-.396 1.031-.396h2.585c.398 0 .741.132 1.031.396a1.64 1.64 0 0 1 .529.975l.285 2.194c.35.127.667.276.95.445s.57.37.858.6l2.066-.848c.366-.162.735-.175 1.105-.041s.658.368.863.703l1.304 2.257c.205.342.264.705.177 1.087s-.286.697-.597.946l-1.793 1.346a2.75 2.75 0 0 1 .069.529l.006.495-.011.484a3.37 3.37 0 0 1-.081.562l1.759 1.323c.311.248.512.564.603.946a1.41 1.41 0 0 1-.172 1.087L22.92 20.67a1.59 1.59 0 0 1-.868.709c-.374.13-.744.114-1.111-.047l-1.997-.859c-.289.23-.583.434-.884.611a5.33 5.33 0 0 1-.924.434l-.285 2.194a1.64 1.64 0 0 1-.529.975c-.289.264-.633.396-1.031.396h-2.585zm.126-1.75h2.293l.419-3.125a6.5 6.5 0 0 0 1.632-.663 7.22 7.22 0 0 0 1.426-1.105l2.899 1.218 1.149-1.983-2.531-1.907c.097-.302.163-.598.198-.889s.053-.583.053-.879a7.11 7.11 0 0 0-.053-.879 4.55 4.55 0 0 0-.198-.866l2.553-1.929-1.149-1.983-2.932 1.236c-.39-.417-.858-.786-1.403-1.106s-1.097-.547-1.655-.68l-.368-3.125h-2.315l-.386 3.114a6.09 6.09 0 0 0-1.649.646 6.96 6.96 0 0 0-1.443 1.122L6.475 8.342l-1.149 1.983 2.519 1.878c-.097.277-.165.565-.204.864s-.058.614-.058.944a6.75 6.75 0 0 0 .058.893 5.1 5.1 0 0 0 .193.864l-2.508 1.907 1.149 1.983 2.888-1.225c.443.455.916.827 1.42 1.117a6.6 6.6 0 0 0 1.672.669l.379 3.114zm1.18-5.833a3.37 3.37 0 0 0 2.478-1.022c.681-.681 1.022-1.507 1.022-2.478s-.341-1.797-1.022-2.478-1.507-1.022-2.478-1.022c-.983 0-1.812.341-2.487 1.022S10.513 13.029 10.513 14s.338 1.797 1.013 2.478 1.504 1.022 2.487 1.022z" fill="#000"/></g></svg>