<svg xmlns="http://www.w3.org/2000/svg" width="16" height="17" fill="none" xmlns:v="https://vecta.io/nano"><g clip-path="url(#A)"><g fill="#f00500"><path d="M11.715 1.908a10.25 10.25 0 0 0-1.137 1.334l-.107-.035a7.86 7.86 0 0 0-1.905-.365 15.08 15.08 0 0 0-1.157 0 6.81 6.81 0 0 0-1.887.367l-.07.025A10.07 10.07 0 0 0 4.277 1.91a8.25 8.25 0 0 1 6.657-.348c.232.086.459.187.681.296l.1.049zm3.861 9.35a7.67 7.67 0 0 1-1.396 2.421c-.332.385-.698.737-1.092 1.058-.923.735-2 1.26-3.149 1.536a8.35 8.35 0 0 1-3.87 0c-1.152-.276-2.227-.801-3.149-1.536a8.64 8.64 0 0 1-1.092-1.058A7.54 7.54 0 0 1 .431 6.264c.17-.471.381-.924.636-1.356l.332-.51.643 2.236c-.007.017-.017.037-.027.054-.581 1.164-.895 2.285-.97 3.479l-.002.047c-.02.357-.01.528.05.752.187.703.763 1.477 1.666 2.236 1.479 1.242 3.483 2.14 5.002 2.243 1.583.106 3.92-.809 5.475-2.145a7.77 7.77 0 0 0 .688-.683c.155-.178.384-.483.366-.483.018-.015.025-.022.02-.027.017-.015.022-.02.02-.025.018-.015.02-.022.018-.027.01-.01.015-.017.015-.022.015-.012.02-.017.02-.022.007-.02.02-.039.032-.057.037-.057.187-.32.207-.365.142-.318.232-.602.274-.885a2.48 2.48 0 0 0 .022-.444c-.002-.01-.002-.027-.005-.054l-.012-.197-.022-.343a7.18 7.18 0 0 0-.945-3.003.85.85 0 0 1-.055-.104c-.005-.007-.008-.015-.01-.02l.646-2.285.005.005.037.049c.065.086.237.343.314.466a7.72 7.72 0 0 1 .82 1.812 7.61 7.61 0 0 1-.115 4.672z"/></g><g fill="#000"><path d="M12.34 8.313c-.007.039-.125.158-.242.244-.344.249-.96.481-1.586.592-.357.064-.713.074-.82.022-.07-.035-.08-.062-.055-.15.052-.185.222-.387.486-.577.135-.096.681-.424.935-.562.419-.227.758-.362.987-.394.072-.01.16-.012.187 0 .045.017.095.148.115.306a3.97 3.97 0 0 1-.008.52zm-5.875.816c-.015.03-.09.062-.175.074s-.344.005-.491-.012c-.529-.069-1.09-.229-1.499-.426-.229-.111-.394-.222-.516-.343l-.07-.071-.007-.094c-.012-.163-.01-.419.01-.51a.67.67 0 0 1 .077-.217c.02-.025.02-.025.11-.025a1.09 1.09 0 0 1 .352.064c.307.094.763.32 1.319.651.459.271.631.404.763.587.09.113.15.274.127.323zm3.531 3.432a6.34 6.34 0 0 1-.067.266l-.067.259c-.027.002-.052.005-.08.002h-.08l-.11.256-.122.291-.015.035-.052-.084-.052-.084v-.683l-.02.005c-.042.01-.344.049-.476.062-.546.054-1.095.042-1.638-.034l-.165-.02c-.002.002 0 .16.005.355l.007.35-.042.064-.045.067c-.007.007-.032-.032-.09-.146s-.107-.244-.14-.375l-.017-.072-.077.005-.077.007-.02-.091-.027-.168-.007-.079-.065-.057-.082-.069c-.012-.01-.017-.027-.017-.042v-.03l.312.002.312.002.01.032.01.032.107.005.419.012.312.007.08-.123.082-.123h.105l-.002-.256-.002-.256-.137-.059c-.441-.192-.701-.412-.798-.678-.02-.054-.02-.074-.025-.32s-.002-.266.015-.321a.36.36 0 0 1 .257-.252c.042-.012.155-.012.743-.012l.693.003.077.037c.092.044.135.076.187.145.06.079.077.14.077.291 0 .215-.015.399-.037.473a1.02 1.02 0 0 1-.145.284 1.33 1.33 0 0 1-.559.387l-.06.022.002.259.002.259.055.005.055.005.075.111.072.111h.334l.362.005c.025.005.03.002.055-.039l.03-.044h.287c.214-.01.279-.005.279.003z"/><path d="M8.679 13.268c-.047.027-.08.039-.087.034s-.042-.032-.08-.059l-.067-.054-.07.074c-.152.163-.157.17-.202.173-.07.007-.085-.005-.17-.131l-.08-.118-.07-.007-.07-.007-.032.067-.032.067-.057-.017a1.23 1.23 0 0 1-.132-.052l-.075-.037v-.141l.663.003.663.002.003.067c.002.079.005.076-.105.138z"/></g><path d="M14.913 10.26c-.002-.01-.002-.027-.005-.054-.598-.064-2.306-.104-3.892 1.191 0 0-.511-2.317-2.905-2.317S4.83 11.397 4.83 11.397c-1.341-1.427-3.137-1.324-3.785-1.23 0 .015-.002.032-.002.047-.02.357-.01.527.05.752.187.703.763 1.477 1.666 2.236 1.479 1.243 3.483 2.14 5.002 2.243 1.583.106 3.92-.809 5.476-2.145.244-.214.474-.441.688-.683.155-.178.384-.483.367-.483.017-.015.025-.022.02-.027.018-.015.022-.02.02-.025.018-.015.02-.022.018-.027.01-.01.015-.017.015-.022.015-.012.02-.017.02-.022a.26.26 0 0 1 .032-.057c.037-.057.187-.32.207-.365.142-.318.232-.602.274-.885.015-.136.027-.385.018-.444zM8.68 13.268c-.047.027-.08.039-.087.034s-.042-.032-.08-.059l-.067-.054-.07.074c-.152.163-.157.17-.202.172-.07.007-.085-.005-.17-.131l-.08-.118-.07-.007-.07-.007-.032.066-.032.067-.057-.017c-.045-.015-.09-.032-.132-.052l-.075-.037v-.141l.663.003.663.002.002.066c.002.079.005.076-.105.138zm1.247-.444l-.067.259c-.027.002-.052.005-.08.002H9.7l-.107.259-.122.291-.015.034-.052-.084-.052-.084v-.683l-.02.005c-.042.01-.344.049-.476.062-.546.054-1.095.042-1.638-.034l-.165-.02c-.003.002 0 .16.005.355l.007.35-.042.064-.045.067c-.007.007-.032-.032-.09-.146s-.107-.244-.14-.375l-.017-.072-.077.005-.077.007-.02-.091-.027-.168-.007-.079-.065-.057-.082-.069c-.012-.01-.017-.027-.017-.042v-.03l.312.002.312.003.01.032.01.032.107.005.419.012.312.007.08-.123.082-.123h.105l-.002-.256-.003-.256-.137-.059c-.441-.192-.701-.412-.798-.678-.02-.054-.02-.074-.025-.321s-.002-.266.015-.32a.36.36 0 0 1 .257-.252c.042-.012.155-.012.743-.012l.693.002.077.037c.092.044.135.077.187.146.06.079.077.141.077.291 0 .214-.015.399-.037.473a1.02 1.02 0 0 1-.145.284 1.33 1.33 0 0 1-.559.387l-.06.022.002.259.002.259.055.005.055.005.075.111.072.111h.334l.362.005c.025.005.03.002.055-.039l.03-.044h.287l.287.01c-.007-.002-.04.118-.077.256z" fill="#fff"/><path d="M14.892 10.009l-.023-.343a7.17 7.17 0 0 0-.945-3.003c-.022-.037-.042-.074-.055-.104-.005-.007-.007-.015-.01-.02l.646-2.285c.342-1.489.558-3.23-.105-3.752 0 0-1.147-.084-2.683 1.405-.416.412-.798.858-1.137 1.334l-.107-.035a7.86 7.86 0 0 0-1.905-.365 15.08 15.08 0 0 0-1.157 0c-.716.047-1.264.153-1.887.367l-.07.025A10.07 10.07 0 0 0 4.28 1.91C2.682.414 1.493.5 1.493.5c-.703.54-.464 2.359-.1 3.898l.643 2.236c-.007.017-.017.037-.027.054-.581 1.164-.895 2.285-.97 3.479.651-.094 2.444-.2 3.787 1.23 0 0 .888-2.317 3.281-2.317s2.905 2.317 2.905 2.317a5.36 5.36 0 0 1 3.892-1.191l-.012-.197zM2.508 5.704s-.933-2.305-.693-3.622c.04-.222.115-.417.232-.565 0 0 1.057.104 2.763 1.977 0 0-.324.155-.758.486-.476.36-1.08.927-1.543 1.723zm3.957 3.424c-.015.03-.09.062-.175.074s-.344.005-.491-.012c-.529-.069-1.09-.229-1.499-.426-.229-.111-.394-.222-.516-.343l-.07-.072-.007-.094c-.012-.163-.01-.419.01-.51.012-.076.04-.15.077-.217.02-.025.02-.025.11-.025a1.09 1.09 0 0 1 .352.064c.307.094.763.32 1.319.651.459.271.631.404.763.587.09.113.15.274.127.323zm5.874-.816c-.007.039-.125.158-.242.244-.344.249-.96.481-1.586.592-.357.064-.713.074-.82.022-.07-.035-.08-.062-.055-.15.052-.185.222-.387.486-.577a15.31 15.31 0 0 1 .935-.562c.419-.227.758-.362.987-.394.072-.01.16-.012.187 0 .045.017.095.148.115.306a3.97 3.97 0 0 1-.008.52zm-.414-4.332l-.005-.002c-.419-.33-.733-.486-.733-.486 1.648-1.874 2.668-1.977 2.668-1.977.112.15.184.343.224.565.232 1.316-.668 3.624-.668 3.624a5.89 5.89 0 0 0-1.486-1.723z" fill="#ffa409"/><path d="M14.082 2.08c-.194-.025-1.114-.03-2.157 1.901l-.005-.002c-.419-.33-.733-.486-.733-.486 1.648-1.874 2.668-1.977 2.668-1.977a1.3 1.3 0 0 1 .227.565z" fill="#ff9300"/><g fill="#ff8300"><path d="M13.414 5.704c-.379-.666-.883-1.25-1.489-1.723 1.042-1.93 1.96-1.925 2.157-1.901.232 1.319-.668 3.624-.668 3.624z"/><path d="M14.119 2.087l-.037-.007.037.007z"/></g><path d="M4.81 3.493s-.324.155-.758.486C2.967 2.048 2.017 2.056 1.813 2.08c.04-.222.115-.417.232-.565.002 0 1.06.104 2.765 1.977z" fill="#ff9300"/><g fill="#ff8300"><path d="M4.049 3.981c-.474.36-1.077.925-1.541 1.723 0 0-.933-2.305-.693-3.624.202-.025 1.154-.03 2.234 1.901z"/><path d="M1.815 2.08l-.04.007.04-.007z"/></g><g fill="#fff"><use href="#B"/><path d="M5.006 6.984s-.798.049-.698-.567.723-.69.898-.666.873.271.748.789-.299.419-.399.444-.549 0-.549 0z"/></g></g><defs><clipPath id="A"><path fill="#fff" transform="translate(0 .5)" d="M0 0h16v16H0z"/></clipPath><path id="B" d="M10.89 6.984s-.798.049-.698-.567.723-.69.898-.666.873.271.748.789-.299.419-.399.444-.549 0-.549 0z"/></defs></svg>