<svg xmlns="http://www.w3.org/2000/svg" width="24" height="24" fill="none" xmlns:v="https://vecta.io/nano"><g clip-path="url(#A)"><g fill="#f00500"><path d="M17.573 2.111a15.32 15.32 0 0 0-1.705 2.001l-.161-.052a11.79 11.79 0 0 0-2.857-.547c-.292-.022-1.38-.022-1.735 0-1.073.07-1.896.229-2.831.551l-.105.037a15.08 15.08 0 0 0-1.762-1.986 12.37 12.37 0 0 1 9.986-.521c.348.129.688.281 1.021.444l.15.074zm5.789 14.027a11.52 11.52 0 0 1-2.094 3.632c-.497.577-1.047 1.106-1.638 1.586-1.384 1.102-3 1.89-4.724 2.304a12.52 12.52 0 0 1-5.805 0c-1.728-.414-3.34-1.202-4.724-2.304-.591-.481-1.141-1.009-1.638-1.586C.102 16.689-.698 12.458.645 8.646a12.02 12.02 0 0 1 .954-2.034 10.07 10.07 0 0 1 .497-.765c.359 1.527.8 2.87.965 3.354a.83.83 0 0 1-.041.081c-.871 1.745-1.343 3.428-1.455 5.218 0 .022-.004.048-.004.07-.03.536-.015.791.075 1.128.281 1.054 1.144 2.215 2.498 3.354 2.218 1.864 5.225 3.21 7.503 3.365 2.375.159 5.879-1.213 8.213-3.217a11.6 11.6 0 0 0 1.032-1.024c.232-.266.576-.725.55-.725-.008 0 0-.007.015-.015s.023-.018.015-.026.004-.015.015-.018.019-.011.015-.018 0-.015.015-.018.015-.015.011-.022c.015-.015.022-.026.022-.033s.008-.018.015-.018.015-.007.015-.015c.011-.029.03-.059.049-.085.056-.085.281-.481.31-.547.213-.477.348-.902.411-1.328.03-.203.049-.577.034-.666-.004-.015-.004-.041-.008-.081-.008-.074-.011-.185-.019-.296a12.44 12.44 0 0 0-.034-.514c-.161-1.679-.595-3.051-1.418-4.504a1.26 1.26 0 0 1-.082-.155c-.008-.011-.011-.022-.015-.03.116-.344.591-1.782.969-3.428l.008.007.056.074a15.24 15.24 0 0 1 .471.699 11.57 11.57 0 0 1 1.23 2.718c.677 2.296.621 4.745-.172 7.008z"/></g><g fill="#000"><path d="M18.506 11.719c-.011.059-.187.237-.363.366-.516.373-1.44.721-2.379.888-.535.096-1.07.111-1.231.033-.105-.052-.12-.092-.082-.226.079-.277.333-.581.729-.865a22.98 22.98 0 0 1 1.402-.843c.628-.34 1.137-.544 1.481-.592a.78.78 0 0 1 .281 0c.067.026.142.222.172.459a5.96 5.96 0 0 1-.011.78zm-8.811 1.224c-.022.044-.135.092-.262.111s-.516.007-.737-.019c-.793-.104-1.634-.344-2.248-.64-.344-.166-.591-.333-.774-.514l-.105-.107-.011-.141c-.019-.244-.015-.629.015-.765.019-.115.06-.226.116-.325.03-.037.03-.037.165-.037.165 0 .303.026.527.096.46.14 1.144.481 1.978.976.688.407.946.606 1.144.88.135.17.224.411.191.484zm5.297 5.148c0 .011-.045.189-.101.399l-.101.388a.69.69 0 0 1-.12.004h-.12l-.165.384-.183.436-.022.052-.079-.126-.079-.126v-1.024l-.03.007c-.064.015-.516.074-.714.092-.819.081-1.642.063-2.457-.052l-.247-.03a11.06 11.06 0 0 0 .008.533l.011.525-.064.096-.067.1c-.011.011-.049-.048-.135-.218-.093-.178-.161-.366-.21-.562l-.026-.107-.116.007-.116.011-.03-.137-.041-.251-.011-.118-.097-.085-.123-.104c-.019-.015-.026-.041-.026-.063v-.044l.468.004.468.004.015.048.015.048.161.007.628.018.468.011.12-.185.123-.185h.157l-.004-.385-.004-.385-.206-.089c-.662-.288-1.051-.618-1.197-1.017-.03-.081-.03-.111-.037-.481s-.004-.399.022-.481a.54.54 0 0 1 .385-.377c.064-.018.232-.018 1.114-.018l1.04.004.116.055a.65.65 0 0 1 .281.218c.09.118.116.211.116.436 0 .322-.022.599-.056.71a1.53 1.53 0 0 1-.217.425c-.187.237-.527.473-.838.581l-.09.033.004.388.004.388.082.007.082.007.112.166.108.166h.501l.542.007c.037.007.045.004.082-.059l.045-.067h.43c.322-.015.419-.007.419.004z"/><path d="M13.016 19.152c-.071.041-.12.059-.131.052s-.064-.048-.12-.089l-.101-.081-.105.111c-.228.244-.236.255-.303.259-.105.011-.127-.007-.254-.196l-.12-.178-.105-.011-.105-.011-.049.1-.049.1-.086-.026c-.067-.022-.135-.048-.198-.078l-.112-.055v-.211l.995.004.995.004.004.1c.004.118.008.115-.157.207z"/></g><path d="M22.367 14.641c-.004-.015-.004-.041-.008-.081a8.02 8.02 0 0 0-5.838 1.786s-.767-3.476-4.357-3.476-4.922 3.476-4.922 3.476C5.23 14.204 2.537 14.359 1.565 14.5c0 .022-.004.048-.004.07-.03.536-.015.791.075 1.128.281 1.054 1.144 2.215 2.498 3.354 2.218 1.864 5.225 3.21 7.503 3.365 2.375.159 5.879-1.213 8.213-3.217.367-.322.711-.662 1.032-1.024.232-.266.576-.725.55-.725-.007 0 0-.007.015-.015s.022-.018.015-.026.004-.015.015-.018.019-.011.015-.018 0-.015.015-.018.015-.015.011-.022c.015-.015.022-.026.022-.033s.008-.018.015-.018.015-.007.015-.015c.011-.03.03-.059.049-.085.056-.085.281-.481.31-.547.213-.477.348-.902.411-1.328.022-.203.041-.577.026-.666zm-9.35 4.512c-.071.041-.12.059-.131.052s-.064-.048-.12-.089l-.101-.081-.105.111c-.228.244-.236.255-.303.259-.105.011-.127-.007-.254-.196l-.12-.177-.105-.011-.105-.011-.049.1-.049.1-.086-.026a1.85 1.85 0 0 1-.198-.078l-.112-.055v-.211l.995.004.995.004.004.1c.004.118.008.115-.157.207zm1.87-.666l-.101.388c-.041.004-.079.007-.12.004h-.12l-.161.388-.183.436-.022.052-.079-.126-.079-.126v-1.024l-.03.007c-.064.015-.516.074-.714.092a10.31 10.31 0 0 1-2.457-.052l-.247-.03a11.06 11.06 0 0 0 .007.533l.011.525-.063.096-.067.1c-.011.011-.049-.048-.135-.218-.094-.178-.161-.366-.21-.562l-.026-.107-.116.007-.116.011-.03-.137-.041-.252-.011-.118-.097-.085-.123-.104c-.019-.015-.026-.041-.026-.063v-.044l.468.004.468.004.015.048.015.048.161.007.628.018.468.011.12-.185.123-.185h.157l-.004-.384-.004-.385-.206-.089c-.662-.288-1.051-.618-1.197-1.017-.03-.081-.03-.111-.037-.481s-.004-.399.023-.481a.54.54 0 0 1 .385-.377c.064-.018.232-.018 1.114-.018l1.04.004.116.056c.138.066.202.115.281.218.09.118.116.211.116.436 0 .322-.023.599-.056.71-.049.152-.123.296-.217.425-.187.237-.527.473-.838.581l-.09.033.004.388.004.388.082.007.082.007.112.166.108.166h.501l.542.007c.037.007.045.004.082-.059l.045-.067h.43l.43.015c-.011-.004-.06.177-.116.385z" fill="#fff"/><path d="M22.336 14.263l-.034-.514a10.76 10.76 0 0 0-1.418-4.504c-.034-.055-.064-.111-.082-.155-.008-.011-.011-.022-.015-.03l.969-3.428c.512-2.234.838-4.844-.157-5.628 0 0-1.72-.126-4.024 2.108-.624.618-1.197 1.287-1.705 2.001l-.161-.052a11.79 11.79 0 0 0-2.857-.547c-.292-.022-1.38-.022-1.735 0-1.073.07-1.896.229-2.831.551l-.105.037c-.527-.71-1.115-1.376-1.762-1.986C4.021-.13 2.237 0 2.237 0c-1.055.81-.696 3.539-.15 5.847l.965 3.354a.83.83 0 0 1-.041.081C2.14 11.027 1.669 12.71 1.557 14.5c.976-.141 3.665-.3 5.681 1.845 0 0 1.331-3.476 4.922-3.476s4.357 3.476 4.357 3.476a8.04 8.04 0 0 1 5.838-1.786l-.019-.296zM3.76 7.806S2.361 4.349 2.72 2.374c.06-.333.172-.625.348-.847 0 0 1.586.155 4.144 2.966 0 0-.486.233-1.137.729A8.9 8.9 0 0 0 3.76 7.806zm5.935 5.137c-.022.044-.135.092-.262.111s-.516.007-.737-.018c-.793-.104-1.634-.344-2.248-.64-.344-.166-.591-.333-.774-.514l-.105-.107-.011-.14c-.019-.244-.015-.629.015-.766a1 1 0 0 1 .116-.325c.03-.037.03-.037.165-.037.165 0 .303.026.527.096.46.14 1.144.481 1.978.976.688.407.946.606 1.144.88.135.17.224.41.191.484zm8.812-1.224c-.011.059-.187.237-.363.366-.516.373-1.44.721-2.379.887-.535.096-1.07.111-1.23.033-.105-.052-.12-.093-.082-.226.079-.277.333-.581.729-.865.202-.144 1.021-.636 1.402-.843.628-.34 1.137-.544 1.481-.592.108-.015.239-.018.281 0 .067.026.142.222.172.459.015.126.008.68-.011.78zm-.621-6.497l-.008-.004c-.628-.496-1.1-.729-1.1-.729 2.472-2.81 4.002-2.966 4.002-2.966.168.226.277.514.337.847.348 1.975-1.002 5.436-1.002 5.436-.565-.995-1.324-1.875-2.229-2.585z" fill="#ffa409"/><path d="M21.122 2.37c-.292-.037-1.672-.044-3.235 2.851l-.007-.004c-.628-.496-1.1-.729-1.1-.729 2.472-2.81 4.002-2.966 4.002-2.966.172.226.281.514.34.847z" fill="#ff9300"/><g fill="#ff8300"><path d="M20.12 7.806a8.8 8.8 0 0 0-2.233-2.585c1.563-2.896 2.94-2.888 3.235-2.851.348 1.978-1.002 5.436-1.002 5.436z"/><path d="M21.177 2.381l-.056-.011.056.011z"/></g><path d="M7.212 4.489s-.486.233-1.137.729C4.448 2.322 3.023 2.333 2.717 2.37c.06-.333.172-.625.348-.847.004 0 1.59.155 4.148 2.966z" fill="#ff9300"/><g fill="#ff8300"><path d="M6.07 5.221c-.711.54-1.616 1.387-2.311 2.585 0 0-1.399-3.458-1.04-5.436.303-.037 1.732-.044 3.351 2.851z"/><path d="M2.72 2.37l-.06.011.06-.011z"/></g><g fill="#fff"><path d="M16.334 9.726s-1.197.074-1.047-.851 1.085-1.035 1.346-.998 1.309.407 1.122 1.183-.449.629-.598.666-.823 0-.823 0zm-8.827 0S6.311 9.8 6.46 8.875s1.085-1.035 1.346-.998 1.309.407 1.122 1.183-.449.629-.598.666-.823 0-.823 0z"/></g></g><defs><clipPath id="A"><path fill="#fff" d="M0 0h24v24H0z"/></clipPath></defs></svg>