<svg xmlns="http://www.w3.org/2000/svg" width="24" height="24" fill="none" xmlns:v="https://vecta.io/nano"><g clip-path="url(#A)"><path d="M12 0c6.627 0 12 5.373 12 12s-5.373 12-12 12S0 18.629 0 12A12 12 0 0 1 12 0z" fill="#53ae94"/><path d="M13.481 10.401V8.616h4.082v-2.72H6.447v2.72h4.083V10.4c-3.318.152-5.813.809-5.813 1.597s2.496 1.444 5.813 1.598v5.718h2.952v-5.719c3.312-.153 5.802-.809 5.802-1.596s-2.49-1.443-5.802-1.596m0 2.708v-.001l-1.464.031c-.762 0-1.298-.022-1.487-.031v.002c-2.931-.13-5.119-.64-5.119-1.251s2.188-1.121 5.119-1.251v1.993l1.499.046 1.452-.046v-1.993c2.926.13 5.109.641 5.109 1.25s-2.184 1.12-5.109 1.25" fill="#fff"/></g><defs><clipPath id="A"><path fill="#fff" d="M0 0h24v24H0z"/></clipPath></defs></svg>