<svg xmlns="http://www.w3.org/2000/svg" width="21" height="20" fill="none" xmlns:v="https://vecta.io/nano"><mask id="A" maskUnits="userSpaceOnUse" x="0" y="0" width="21" height="20" mask-type="alpha"><path fill="#d9d9d9" d="M.5 0h20v20H.5z"/></mask><g mask="url(#A)"><path d="M10.5 17.291c-.177 0-.326-.06-.445-.18s-.18-.268-.18-.445v-3.333c0-.177.06-.325.18-.445s.268-.18.445-.18.326.06.445.18.18.268.18.445v1.042h6.042c.177 0 .326.06.445.18s.18.268.18.445-.06.326-.18.445-.268.18-.445.18h-6.042v1.042c0 .177-.06.326-.18.445s-.268.18-.445.18zm-6.666-1.667c-.177 0-.325-.06-.445-.18s-.18-.268-.18-.445.06-.326.18-.445.268-.18.445-.18h3.333c.177 0 .325.06.445.18s.18.268.18.445-.06.326-.18.445-.268.18-.445.18H3.833zm3.333-3.333c-.177 0-.326-.06-.445-.18s-.18-.268-.18-.445v-1.042H3.833c-.177 0-.325-.06-.445-.18s-.18-.268-.18-.445.06-.326.18-.445.268-.18.445-.18h2.708V8.333c0-.177.06-.325.18-.445s.268-.18.445-.18.326.06.445.18.18.268.18.445v3.333c0 .177-.06.325-.18.445s-.268.18-.445.18zm3.334-1.667c-.177 0-.325-.06-.445-.18s-.18-.268-.18-.445.06-.326.18-.445.268-.18.445-.18h6.667c.177 0 .326.06.445.18s.18.268.18.445-.06.326-.18.445-.268.18-.445.18H10.5zm3.333-3.333c-.177 0-.326-.06-.445-.18s-.18-.268-.18-.445V3.333c0-.177.06-.325.18-.445s.268-.18.446-.18.326.06.445.18.18.268.18.445v1.042h2.708c.177 0 .326.06.445.18s.18.268.18.445-.06.326-.18.445-.268.18-.445.18h-2.708v1.042c0 .177-.06.325-.18.445s-.268.18-.445.18zm-10-1.667c-.177 0-.325-.06-.445-.18s-.18-.268-.18-.445.06-.326.18-.445.268-.18.445-.18H10.5c.177 0 .325.06.445.18s.18.268.18.445-.06.326-.18.445-.268.18-.445.18H3.833z" fill="#000"/></g></svg>